<svg width="100" height="100" viewBox="0 0 100 100" fill="none" xmlns="http://www.w3.org/2000/svg">
<rect width="100" height="100" fill="#5C2D91"/>
<path d="M26.4261 52.7733C26.2374 52.7763 26.05 52.7399 25.8759 52.6665C25.7019 52.5931 25.5448 52.4842 25.4148 52.3467C25.2812 52.2141 25.1756 52.0558 25.1043 51.8812C25.0331 51.7066 24.9976 51.5194 25.0001 51.3308C24.9988 51.1423 25.0347 50.9554 25.1059 50.781C25.1771 50.6066 25.2821 50.4482 25.4148 50.3149C25.5436 50.1751 25.7001 50.0639 25.8743 49.9887C26.0485 49.9135 26.2365 49.8758 26.4261 49.8781C26.6155 49.8776 26.8029 49.9161 26.9769 49.9913C27.1508 50.0664 27.3076 50.1766 27.4375 50.3149C27.5725 50.447 27.6796 50.605 27.7526 50.7795C27.8256 50.954 27.8629 51.1415 27.8623 51.3308C27.864 51.5202 27.8273 51.7081 27.7542 51.8827C27.6812 52.0574 27.5734 52.2153 27.4375 52.3467C27.3064 52.4827 27.1491 52.5906 26.9753 52.664C26.8015 52.7373 26.6147 52.7745 26.4261 52.7733Z" fill="white"/>
<path d="M46.5219 52.5194H43.8722L34.3957 37.7486C34.1596 37.3846 33.963 36.9964 33.8091 36.5905H33.7282C33.8182 37.4338 33.852 38.2823 33.8293 39.1302V52.5194H31.6751V34H34.4766L43.7002 48.5067C44.0845 49.1094 44.334 49.5225 44.4486 49.746H44.4992C44.3925 48.8427 44.3486 47.933 44.3677 47.0235V34H46.5219V52.5194Z" fill="white"/>
<path d="M61.1058 52.5194H51.3057V34H60.6507V35.9606H53.5105V42.1168H60.1652V44.0673H53.5105V50.4876H61.1159L61.1058 52.5194Z" fill="white"/>
<path d="M75.5784 35.9606H70.2182V52.5194H68.064V35.9606H62.7644V34H75.5784V35.9606Z" fill="white"/>
<path d="M45.3589 65.1162C44.6287 65.4714 43.8233 65.6422 43.0125 65.614C42.4737 65.6383 41.936 65.5467 41.4354 65.3452C40.9348 65.1437 40.4828 64.837 40.1099 64.4457C39.3668 63.6102 38.9752 62.5177 39.0176 61.3981C38.9904 60.7919 39.0847 60.1864 39.2949 59.6175C39.5052 59.0486 39.827 58.5279 40.2414 58.0863C40.6452 57.6708 41.1307 57.3442 41.6669 57.1274C42.2032 56.9105 42.7786 56.8081 43.3564 56.8267C44.0479 56.8029 44.7367 56.924 45.3791 57.1822V58.1981C44.7606 57.8542 44.0632 57.679 43.3564 57.6902C42.9107 57.6775 42.4677 57.7618 42.0575 57.9371C41.6473 58.1125 41.2796 58.3747 40.9797 58.706C40.3489 59.4278 40.0225 60.3677 40.0694 61.327C40.0222 62.2356 40.3266 63.1275 40.919 63.8159C41.2031 64.1228 41.55 64.3643 41.9358 64.5238C42.3216 64.6834 42.7372 64.7573 43.1541 64.7403C43.9306 64.7607 44.6975 64.5638 45.369 64.1714L45.3589 65.1162Z" fill="#F2F2F2"/>
<path d="M49.4953 65.614C49.0928 65.6271 48.6921 65.5531 48.3204 65.3971C47.9487 65.2411 47.6148 65.0067 47.3411 64.7098C46.7881 64.0899 46.501 63.2758 46.5422 62.4444C46.5169 62.0089 46.5781 61.5726 46.7222 61.1611C46.8663 60.7495 47.0905 60.3708 47.3816 60.047C47.6787 59.7557 48.0322 59.5288 48.4201 59.3803C48.808 59.2318 49.2222 59.1648 49.6369 59.1835C50.029 59.1625 50.4209 59.227 50.7857 59.3726C51.1506 59.5181 51.4798 59.7413 51.7507 60.0267C52.2882 60.6774 52.5594 61.509 52.5092 62.353C52.5516 63.2096 52.2575 64.0487 51.69 64.6895C51.4112 64.9922 51.0711 65.2313 50.6925 65.3908C50.3139 65.5503 49.9057 65.6264 49.4953 65.614V65.614ZM49.5661 60.0571C49.2879 60.0454 49.0107 60.0968 48.755 60.2076C48.4994 60.3184 48.2719 60.4858 48.0896 60.6971C47.7004 61.2005 47.5063 61.8286 47.5434 62.4648C47.5081 63.082 47.7028 63.6904 48.0896 64.1714C48.2738 64.3798 48.5018 64.5444 48.7572 64.6534C49.0126 64.7623 49.2889 64.8128 49.5661 64.8013C49.8375 64.8174 50.109 64.7708 50.3597 64.6651C50.6104 64.5595 50.8337 64.3975 51.0124 64.1917C51.3801 63.6871 51.5591 63.0685 51.5181 62.4444C51.5581 61.8174 51.3792 61.1959 51.0124 60.687C50.8362 60.4769 50.6139 60.3107 50.3629 60.2014C50.112 60.0921 49.8393 60.0427 49.5661 60.0571V60.0571Z" fill="#F2F2F2"/>
<path d="M57.2323 60.3619C57.0138 60.2182 56.7545 60.1504 56.494 60.1689C56.2902 60.1763 56.0914 60.234 55.9151 60.3367C55.7387 60.4394 55.5902 60.5842 55.4826 60.7581C55.1816 61.2368 55.0367 61.7979 55.068 62.3632V65.4717H54.0566V59.3765H55.068V60.6463C55.1791 60.2534 55.4003 59.9008 55.7051 59.6305C55.9689 59.4005 56.3066 59.2743 56.6558 59.2749C56.8513 59.2661 57.0467 59.2936 57.2323 59.3562V60.3619Z" fill="#F2F2F2"/>
<path d="M63.1589 62.6781H58.8808C58.8521 63.246 59.0361 63.8041 59.3966 64.2425C59.5841 64.4303 59.8089 64.5763 60.0564 64.6708C60.3038 64.7653 60.5684 64.8063 60.8327 64.7911C61.5183 64.7842 62.1814 64.5443 62.7139 64.1105V65.0248C62.0886 65.4388 61.3481 65.6416 60.6001 65.6038C60.2227 65.6229 59.8458 65.5582 59.4961 65.4142C59.1465 65.2702 58.8328 65.0505 58.5774 64.7708C58.0509 64.1111 57.7877 63.2782 57.8391 62.4343C57.8027 61.5883 58.0884 60.7601 58.6381 60.1181C58.8882 59.8278 59.1995 59.5971 59.5493 59.4425C59.8991 59.2879 60.2788 59.2133 60.6608 59.2241C61.0057 59.2047 61.3506 59.2641 61.6694 59.3978C61.9882 59.5315 62.2727 59.7361 62.5015 59.9962C62.9672 60.613 63.1969 61.3772 63.1487 62.1498L63.1589 62.6781ZM62.1475 61.8552C62.168 61.3845 62.025 60.9212 61.743 60.5448C61.6046 60.3877 61.4326 60.2641 61.24 60.1832C61.0473 60.1022 60.839 60.0661 60.6305 60.0775C60.4128 60.0748 60.197 60.1177 59.9967 60.2034C59.7965 60.2891 59.6162 60.4157 59.4674 60.5752C59.1345 60.9289 58.9251 61.3817 58.8707 61.8654L62.1475 61.8552Z" fill="#F2F2F2"/>
</svg>
